<svg height="128" viewBox="0 0 512 512" width="128" xmlns="http://www.w3.org/2000/svg"><path d="m194.452 185.679c-23.344-4.381-39.892 3.62-65.28 36.261-25.385 32.634-16.921 82.195 26.598 83.405 36.271 1.005 50.77-33.85 59.231-59.228 11.997-35.99-1.209-56.818-20.549-60.438z"/><path d="m312.616 184.293c-22.963 9.673-27.708 25.664-15.715 61.66 8.464 25.378 22.966 60.24 59.234 59.221 43.516-1.21 51.98-50.771 26.594-83.404-25.385-32.647-47.143-47.143-70.113-37.477z"/><path d="m512 98.634c0-40.269-32.64-72.91-72.909-72.91-33.625 0-61.911 22.757-70.335 53.719-32.983-19.685-71.601-31.016-112.756-31.003-30.378 0-59.398 6.155-85.765 17.322-9.126 3.859-17.924 8.335-26.367 13.342-7.558-32.212-36.448-56.199-70.96-56.199-40.265 0-72.908 32.641-72.908 72.91 0 35.942 26.01 65.776 60.226 71.788-15.685 30.304-24.56 64.737-24.557 101.161 0 30.378 6.165 59.397 17.322 85.768 16.735 39.562 44.654 73.174 79.811 96.922 35.143 23.748 77.619 37.647 123.197 37.64 30.378.007 59.398-6.162 85.768-17.316 39.562-16.738 73.167-44.657 96.928-79.818 23.749-35.147 37.64-77.624 37.634-123.197 0-30.378-6.168-59.398-17.322-85.768-1.841-4.348-3.838-8.614-5.944-12.804 33.586-6.528 58.937-36.077 58.937-71.557zm-81.36 243.901c-14.38 33.993-38.428 62.958-68.684 83.398-30.27 20.434-66.652 32.348-105.957 32.348-26.211 0-51.1-5.292-73.765-14.884-33.992-14.374-62.964-38.428-83.401-68.677-20.434-30.27-32.351-66.646-32.355-105.957 0-26.208 5.298-51.097 14.887-73.772 14.37-33.992 38.428-62.958 68.684-83.384 30.266-20.44 66.646-32.362 105.95-32.362 26.211 0 51.1 5.292 73.765 14.883 33.992 14.374 62.957 38.421 83.397 68.684s32.355 66.646 32.362 105.95c.001 26.216-5.304 51.099-14.883 73.773z"/><path d="m315.584 357.793c-2.744-1.1-5.862.238-6.963 2.982-.951 2.37-2.211 4.313-3.736 5.964-2.279 2.453-5.19 4.273-8.569 5.482-3.37 1.223-7.187 1.82-11.038 1.82-6.457.027-12.995-1.712-17.469-4.334-2.241-1.304-3.95-2.798-4.986-4.225-.523-.72-.886-1.406-1.117-2.072-.234-.659-.346-1.298-.346-1.983v-26.337c5.971-.802 16.096-3.845 25.98-14.618 4.826-5.258 8.176-19.986-4.059-25.753-6.372-2.995-15.8-3.62-27.281-3.62-11.48 0-20.906.625-27.277 3.62-12.234 5.767-8.888 20.494-4.062 25.753 9.887 10.773 20.009 13.816 25.98 14.618v26.337c0 .686-.108 1.324-.343 1.983-.408 1.162-1.23 2.418-2.561 3.689-1.984 1.902-5.095 3.709-8.804 4.959-3.703 1.27-7.975 1.983-12.21 1.983-5.143.014-10.196-1.06-14.252-3.233-2.038-1.087-3.835-2.432-5.36-4.069-1.522-1.651-2.782-3.594-3.736-5.964-1.094-2.744-4.216-4.083-6.963-2.982-2.748 1.101-4.082 4.212-2.982 6.97 1.423 3.56 3.424 6.657 5.825 9.258 3.603 3.879 8.063 6.583 12.788 8.281 4.728 1.726 9.741 2.46 14.68 2.46 8.284-.014 16.381-2.052 22.865-5.788 2.398-1.413 4.586-3.056 6.43-5.013.285.299.561.612.863.897 3.464 3.288 7.862 5.679 12.733 7.35 4.871 1.658 10.23 2.554 15.665 2.554 6.576 0 13.308-1.318 19.295-4.497 2.986-1.596 5.774-3.662 8.172-6.243 2.401-2.601 4.402-5.699 5.825-9.258 1.103-2.759-.239-5.871-2.987-6.971z"/></svg>
