<svg height="128" viewBox="0 0 512 512" width="128" xmlns="http://www.w3.org/2000/svg"><path d="m197.336 71.465c0-7.21-5.89-13.099-13.099-13.099-7.246 0-13.098 5.89-13.098 13.099v108.888c8.331-4.813 17.088-8.902 26.197-12.249z"/><path d="m340.852 71.465c0-7.21-5.898-13.099-13.098-13.099-7.246 0-13.099 5.89-13.099 13.099v96.639c9.1 3.347 17.866 7.436 26.197 12.249z"/><path d="m389.701 201.9v-139.961c0-17.061-6.957-32.63-18.147-43.792-10.872-10.892-25.925-17.722-42.453-18.075-.408-.044-.86-.063-1.348-.072-17.061-.008-32.63 6.957-43.801 18.147-11.182 11.163-18.146 26.732-18.137 43.792v82.555c-3.248-.182-6.514-.308-9.815-.308-3.311 0-6.568.126-9.815.308v-82.555c.009-17.061-6.957-32.63-18.138-43.802-10.873-10.89-25.944-17.72-42.471-18.073-.371-.036-.786-.055-1.238-.055-.028 0-.055-.009-.091-.009 0 0 0 0-.01 0-17.052-.008-32.628 6.957-43.792 18.138-11.182 11.172-18.146 26.741-18.146 43.802v139.952c-31.083 32.9-50.215 77.362-50.206 126.202-.01 50.739 20.607 96.802 53.86 130.038 33.235 33.261 79.299 53.868 130.029 53.868h.018c50.73.009 96.793-20.607 130.028-53.861 33.262-33.234 53.878-79.298 53.878-130.037.001-48.84-19.132-93.301-50.205-126.202zm-22.814 237.09c-28.423 28.404-67.538 45.927-110.887 45.935h-.009c-43.349-.008-82.473-17.54-110.896-45.945-28.395-28.423-45.918-67.538-45.927-110.887.009-43.494 17.649-82.718 46.217-111.168l3.998-3.971v-151.015c0-9.671 3.881-18.3 10.204-24.651 6.35-6.332 14.98-10.203 24.65-10.212h.01c9.67.009 18.3 3.88 24.65 10.212 6.332 6.351 10.204 14.98 10.213 24.651v112.949l15.378-2.117c7.084-.968 14.248-1.502 21.512-1.502 7.255 0 14.428.534 21.512 1.502l15.378 2.117v-112.949c.009-9.661 3.89-18.3 10.213-24.651 6.342-6.314 14.944-10.186 24.587-10.203h.064c9.679.008 18.309 3.88 24.66 10.213 6.332 6.341 10.204 14.98 10.204 24.642v151.024l3.988 3.971c28.558 28.441 46.208 67.665 46.217 111.168-.009 43.347-17.531 82.463-45.936 110.887z"/><path d="m202.953 307.957c0-9.625-7.807-17.423-17.422-17.423-9.626 0-17.432 7.798-17.432 17.423 0 9.624 7.807 17.422 17.432 17.422 9.615 0 17.422-7.798 17.422-17.422z"/><path d="m326.469 290.534c-9.626 0-17.423 7.798-17.423 17.423 0 9.624 7.798 17.422 17.423 17.422s17.423-7.798 17.423-17.422c0-9.625-7.798-17.423-17.423-17.423z"/><path d="m307.888 365.327c-3.736 0-6.766 3.031-6.766 6.766 0 5.319-2.135 10.078-5.618 13.569-3.491 3.474-8.24 5.609-13.559 5.618-5.32-.01-10.068-2.144-13.57-5.618-2.46-2.479-4.233-5.608-5.066-9.1 10.113-3.121 17.468-12.547 17.468-23.682 0-13.687-11.1-24.786-24.777-24.786-13.696 0-24.786 11.099-24.786 24.786 0 11.135 7.354 20.562 17.477 23.682-.832 3.492-2.614 6.621-5.084 9.1-3.492 3.474-8.25 5.609-13.56 5.618-5.319-.01-10.068-2.144-13.56-5.618-3.483-3.491-5.618-8.25-5.627-13.569 0-3.736-3.021-6.766-6.766-6.766-3.737 0-6.767 3.031-6.767 6.766 0 18.074 14.646 32.72 32.72 32.72 10.584 0 19.965-5.048 25.954-12.845 5.97 7.798 15.36 12.845 25.944 12.845 18.073 0 32.71-14.645 32.72-32.72-.001-3.735-3.032-6.766-6.777-6.766z"/></svg>
